<svg>
    <path fill-rule="evenodd" clip-rule="evenodd" d="M7.4375 16.625C8.16237 16.625 8.75 17.2126 8.75 17.9375C8.75 18.6624 8.16237 19.25 7.4375 19.25C6.71262 19.25 6.125 18.6624 6.125 17.9375C6.125 17.2126 6.71262 16.625 7.4375 16.625ZM15.3125 16.625C16.0374 16.625 16.625 17.2126 16.625 17.9375C16.625 18.6624 16.0374 19.25 15.3125 19.25C14.5876 19.25 14 18.6624 14 17.9375C14 17.2126 14.5876 16.625 15.3125 16.625ZM2.625 1.75H4.375C4.77365 1.75 5.11727 2.01849 5.21942 2.39552L5.23983 2.49195L5.66414 5.25H18.375C18.8998 5.25 19.2981 5.70559 19.2457 6.2128L19.2292 6.31481L17.7837 12.8194C17.5284 13.9683 16.5427 14.8 15.3807 14.8702L15.2212 14.875H7.62636C6.38256 14.875 5.31735 14.0038 5.05982 12.8012L5.03188 12.6491L3.62432 3.5H2.625C2.14175 3.5 1.75 3.10825 1.75 2.625C1.75 2.17627 2.08779 1.80643 2.52296 1.75589L2.625 1.75H4.375H2.625ZM17.2842 7H5.93337L6.76153 12.383C6.82215 12.7771 7.13976 13.0759 7.52795 13.1195L7.62635 13.125H15.2212C15.5971 13.125 15.9268 12.8857 16.0477 12.5374L16.0754 12.4398L17.2842 7Z" fill="#CAD6E2" />
</svg>