<svg viewBox="0 0 33 33" fill="none" xmlns="http://www.w3.org/2000/svg">
    <circle cx="16.5" cy="16.5" r="16.5" fill="#0088FF" />
    <path d="M20.4871 12.5784C19.241 12.5779 18.2311 11.568 18.2307 10.322V7.70001H11.2538C10.5071 7.70213 9.90211 8.30713 9.89999 9.05386V23.9462C9.90211 24.6929 10.5071 25.2979 11.2538 25.3H21.7551C22.502 25.2979 23.1069 24.6929 23.109 23.9462V12.5784H20.4871ZM12.3415 14.6046H17.2198C17.469 14.6046 17.671 14.8066 17.671 15.0559C17.671 15.3052 17.469 15.5072 17.2198 15.5072H12.3415C12.0922 15.5072 11.8902 15.3052 11.8902 15.0559C11.8902 14.8066 12.0922 14.6046 12.3415 14.6046ZM21.1233 22.3351H12.3415C12.0922 22.3351 11.8902 22.1331 11.8902 21.8838C11.8902 21.6346 12.0922 21.4326 12.3415 21.4326H21.1233C21.3726 21.4326 21.5746 21.6346 21.5746 21.8838C21.5746 22.1331 21.3726 22.3351 21.1233 22.3351ZM21.1233 18.919H12.3415C12.0922 18.919 11.8902 18.7168 11.8902 18.4677C11.8902 18.2184 12.0922 18.0164 12.3415 18.0164H21.1233C21.3726 18.0164 21.5746 18.2184 21.5746 18.4677C21.5746 18.7168 21.3726 18.919 21.1233 18.919Z" fill="white" />
    <path d="M20.4872 11.6759H22.4818L19.1334 8.33643V10.3221C19.1339 11.0695 19.7396 11.6752 20.4872 11.6759Z" fill="white" />
</svg>