<svg viewBox="0 0 33 33" fill="none" xmlns="http://www.w3.org/2000/svg">
    <circle cx="16.5" cy="16.5" r="16.5" fill="#0FD186" />
    <path d="M24.6111 18.0708L23.9907 16.7278C23.9237 16.5827 23.9237 16.4167 23.9907 16.272L24.6111 14.929C24.9565 14.1814 24.6829 13.2901 23.9881 12.9003L22.7403 12.1997C22.6058 12.1241 22.5135 11.9897 22.4869 11.8309L22.2429 10.3586C22.1071 9.53883 21.3904 8.98816 20.6117 9.10468L19.2132 9.31402C19.0621 9.33671 18.913 9.28515 18.8035 9.17309L17.7883 8.13396C17.2231 7.55545 16.3375 7.55511 15.7722 8.13396L14.757 9.17309C14.6476 9.28515 14.4981 9.33636 14.3474 9.31402L12.9488 9.10468C12.1698 8.98816 11.4535 9.53883 11.3177 10.3586L11.0737 11.8309C11.0474 11.9897 10.9552 12.1241 10.8207 12.1997L9.57285 12.9003C8.87732 13.2904 8.60378 14.1817 8.94911 14.9293L9.56928 16.272C9.6362 16.4167 9.6362 16.5831 9.56928 16.7278L8.94911 18.0708C8.60378 18.8184 8.87732 19.7097 9.5722 20.0995L10.82 20.8001C10.9545 20.8757 11.0471 21.0101 11.0734 21.1689L11.3174 22.6411C11.4411 23.3874 12.0457 23.9106 12.7409 23.9106C12.8095 23.9106 12.8787 23.9054 12.9485 23.8951L14.3471 23.6858C14.4978 23.6631 14.6472 23.7146 14.7567 23.8267L15.7719 24.8658C16.0545 25.1552 16.4171 25.3 16.78 25.3C17.1425 25.3 17.5054 25.1552 17.788 24.8658L18.8032 23.8267C18.9127 23.7146 19.0621 23.6634 19.2129 23.6858L20.6114 23.8951C21.3904 24.0116 22.1068 23.4609 22.2426 22.6411L22.4865 21.1689C22.5128 21.0101 22.6051 20.8757 22.7399 20.8001L23.9877 20.0995C24.6826 19.7097 24.9565 18.8184 24.6111 18.0708ZM14.8613 11.9323C15.831 11.9323 16.6201 12.7672 16.6201 13.7933C16.6201 14.8193 15.831 15.6543 14.8613 15.6543C13.8916 15.6543 13.1025 14.8193 13.1025 13.7933C13.1025 12.7672 13.8916 11.9323 14.8613 11.9323ZM13.9536 20.2085C13.8601 20.3075 13.7373 20.3573 13.6145 20.3573C13.4917 20.3573 13.3689 20.3078 13.2753 20.2085C13.0879 20.0102 13.0879 19.6891 13.2753 19.4908L19.6066 12.7916C19.7941 12.5933 20.0975 12.5933 20.2849 12.7916C20.4724 12.99 20.4724 13.311 20.2849 13.5094L13.9536 20.2085ZM18.6986 21.0678C17.7289 21.0678 16.9398 20.2329 16.9398 19.2068C16.9398 18.1808 17.7289 17.3458 18.6986 17.3458C19.6683 17.3458 20.4574 18.1808 20.4574 19.2068C20.4574 20.2329 19.6683 21.0678 18.6986 21.0678Z" fill="white" />
</svg>