<svg viewBox="0 0 623.6 878.7" xmlns="http://www.w3.org/2000/svg" fill="currentColor">
    <path d="M546.7 129.7l-72.2 36.1-72.2-36.1c-5.7-2.9-12.5-2.9-18.2 0l-72.2 36.1-72.2-36.1c-5.7-2.9-12.5-2.9-18.2 0l-72.2 36.1-72.2-36.1c-13.5-6.7-29.4 3.1-29.4 18.2v542.3c0 7.7 4.4 14.7 11.2 18.2L140 749c5.7 2.9 12.5 2.9 18.2 0l72.2-36.1 72.2 36.1c5.7 2.9 12.5 2.9 18.2 0l72.2-36.1 72.2 36.1c5.7 2.9 12.5 2.9 18.2 0l81.3-40.7c6.9-3.4 11.2-10.5 11.2-18.2V147.9c.3-15.1-15.6-24.9-29.2-18.2zm-11.2 479.1v68.8l-61 30.5-72.3-36.1c-2.9-1.4-6-2.1-9.1-2.1-3.1 0-6.2.7-9.1 2.1l-72.2 36.1-72.2-36.1c-5.7-2.9-12.5-2.9-18.2 0l-72.2 36.1-61-30.5V180.8l51.9 26c5.7 2.9 12.5 2.9 18.2 0l72.2-36.1 72.2 36.1c5.7 2.9 12.5 2.9 18.2 0l72.2-36.1 72.2 36.1c5.7 2.9 12.5 2.9 18.2 0l51.9-26 .1 428z"></path>
    <path d="M257.6 249.6H149.1c-11.2 0-20.3 9.1-20.3 20.3s9.1 20.3 20.3 20.3h108.5c11.2 0 20.3-9.1 20.3-20.3 0-11.2-9.1-20.3-20.3-20.3zM257.6 330.9H149.1c-11.2 0-20.3 9.1-20.3 20.3s9.1 20.3 20.3 20.3h108.5c11.2 0 20.3-9.1 20.3-20.3 0-11.2-9.1-20.3-20.3-20.3zM257.6 412.3H149.1c-11.2 0-20.3 9.1-20.3 20.3s9.1 20.3 20.3 20.3h108.5c11.2 0 20.3-9.1 20.3-20.3 0-11.2-9.1-20.3-20.3-20.3zM257.6 493.6H149.1c-11.2 0-20.3 9.1-20.3 20.3 0 11.2 9.1 20.3 20.3 20.3h108.5c11.2 0 20.3-9.1 20.3-20.3 0-11.2-9.1-20.3-20.3-20.3zM149.1 588.5h-40.7c-11.2 0-20.3 9.1-20.3 20.3 0 11.2 9.1 20.3 20.3 20.3h40.7c11.2 0 20.3-9.1 20.3-20.3.1-11.2-9-20.3-20.3-20.3zM271.1 588.5h-40.7c-11.2 0-20.3 9.1-20.3 20.3 0 11.2 9.1 20.3 20.3 20.3h40.7c11.2 0 20.3-9.1 20.3-20.3.1-11.2-9-20.3-20.3-20.3zM393.1 588.5h-40.7c-11.2 0-20.3 9.1-20.3 20.3 0 11.2 9.1 20.3 20.3 20.3h40.7c11.2 0 20.3-9.1 20.3-20.3.1-11.2-9-20.3-20.3-20.3zM515.2 588.5h-40.7c-11.2 0-20.3 9.1-20.3 20.3 0 11.2 9.1 20.3 20.3 20.3h40.7c11.2 0 20.3-9.1 20.3-20.3 0-11.2-9.1-20.3-20.3-20.3zM429.8 360.4c-21.3-11.3-43.4-22.9-43.4-36.2 0-18.7 15.2-33.9 33.9-33.9s33.9 15.2 33.9 33.9c0 11.2 9.1 20.3 20.3 20.3s20.3-9.1 20.3-20.3c0-34.1-23-62.8-54.2-71.7v-9.6c0-11.2-9.1-20.3-20.3-20.3s-20.3 9.1-20.3 20.3v9.6c-31.3 8.9-54.2 37.7-54.2 71.7 0 37.8 36.1 56.9 65.1 72.2 21.3 11.3 43.4 22.9 43.4 36.2 0 18.7-15.2 33.9-33.9 33.9s-33.9-15.2-33.9-33.9c0-11.2-9.1-20.3-20.3-20.3s-20.3 9.1-20.3 20.3c0 34.1 23 62.8 54.2 71.7v9.6c0 11.2 9.1 20.3 20.3 20.3s20.3-9.1 20.3-20.3v-9.6c31.3-8.9 54.2-37.7 54.2-71.7-.1-37.8-36.2-56.9-65.1-72.2z"></path>
</svg>