<svg xmlns="http://www.w3.org/2000/svg" xmlns:xlink="http://www.w3.org/1999/xlink" version="1.1" viewBox="0 0 91.967 55.177" enable-background="new 0 0 91.967 55.177" xml:space="preserve" fill="currentColor">
    <g>
        <path d="M91.967,9.956C91.967,4.46,87.503,0,82.011,0L51.729,4.989c-5.5,0-9.954,4.457-9.954,9.956v30.275   c0,5.498,4.454,9.956,9.954,9.956h30.277c5.496,0,9.954-4.458,9.954-9.956V33.377c-0.028-0.513-0.047-1.024-0.047-1.556   c0-0.527,0.012-1.057,0.053-1.573V9.956z M79.578,47.646c-3.326,2.296-7.347,3.443-12.052,3.443c-6.775,0-13.034-2.44-18.773-7.319   l6.132-6.202c3.795,4.077,8.174,6.117,13.131,6.117c1.896,0,3.654-0.405,5.271-1.206c2.014-0.97,3.021-2.317,3.021-4.039   c0-2.516-1.84-4.12-5.515-4.812l-5.074-0.966c-4.54-0.863-7.897-1.952-10.072-3.266c-3.273-2.017-4.915-4.883-4.915-8.617   c0-4.255,1.725-7.639,5.167-10.167c3.048-2.29,6.779-3.441,11.195-3.441c5.624,0,11.139,1.925,16.537,5.771l-5.1,6.286   c-3.683-3.106-7.434-4.656-11.237-4.656c-1.843,0-3.515,0.407-5.008,1.209c-1.788,0.976-2.684,2.32-2.684,4.051   c0,2.237,1.836,3.702,5.512,4.39l9.038,1.727c7.353,1.374,11.029,5.076,11.029,11.107C85.181,41.529,83.311,45.058,79.578,47.646z" />
        <g>
            <polygon points="37.626,18.46 37.626,21.914 0,20.188" />
            <polygon points="37.626,28.821 37.626,32.275 9.867,30.548" />
            <polygon points="37.626,39.184 37.626,42.637 23.682,40.909" />
        </g>
    </g>
</svg>