<svg width="49" height="51" viewBox="0 0 49 51" fill="none" xmlns="http://www.w3.org/2000/svg">
<path d="M36.5943 45.4516C36.5943 47.9649 34.5208 50.0384 32.0074 50.0384C29.4941 50.0384 27.4206 47.9649 27.4206 45.4516C27.4206 42.9382 29.4941 40.8647 32.0074 40.8647C34.5836 40.8019 36.5943 42.8754 36.5943 45.4516Z" fill="url(#paint0_linear_5431_39932)"/>
<path d="M18.3097 50.3526C21.0115 50.3526 23.2107 48.1535 23.2107 45.4516C23.2107 42.7498 21.0115 40.5506 18.3097 40.5506C15.6078 40.5506 13.4087 42.7498 13.4087 45.4516C13.4087 48.1535 15.6078 50.3526 18.3097 50.3526Z" fill="url(#paint1_linear_5431_39932)"/>
<path d="M7.81642 41.9958C10.7068 41.9958 13.0316 39.6709 13.0316 36.7805C13.0316 33.8902 10.7068 31.5653 7.81642 31.5653C4.92607 31.5653 2.60123 33.8902 2.60123 36.7805C2.60123 39.6709 4.92607 41.9958 7.81642 41.9958Z" fill="url(#paint2_linear_5431_39932)"/>
<path d="M5.68007 28.8006C8.6961 28.8006 11.0838 26.3501 11.0838 23.3969C11.0838 20.3809 8.63326 17.9932 5.68007 17.9932C2.72688 17.9932 0.276359 20.4437 0.276359 23.3969C0.213525 26.3501 2.66405 28.8006 5.68007 28.8006Z" fill="url(#paint3_linear_5431_39932)"/>
<path d="M12.3405 17.302C15.4193 17.302 17.9327 14.7887 17.9327 11.7098C17.9327 8.63094 15.4193 6.11758 12.3405 6.11758C9.26162 6.11758 6.74826 8.63094 6.74826 11.7098C6.74826 14.7887 9.26162 17.302 12.3405 17.302Z" fill="url(#paint4_linear_5431_39932)"/>
<path d="M25.1586 13.2178C28.5516 13.2178 31.3163 10.4531 31.3163 7.06008C31.3163 3.66706 28.5516 0.902374 25.1586 0.902374C21.7656 0.902374 19.0009 3.66706 19.0009 7.06008C19.0009 10.4531 21.7656 13.2178 25.1586 13.2178Z" fill="url(#paint5_linear_5431_39932)"/>
<path d="M42.1865 41.0532C44.637 41.0532 46.6477 39.0425 46.6477 36.592C46.6477 34.1414 44.637 32.1308 42.1865 32.1308C39.736 32.1308 37.7253 34.1414 37.7253 36.592C37.7253 39.0425 39.736 41.0532 42.1865 41.0532Z" fill="url(#paint6_linear_5431_39932)"/>
<path d="M44.5742 27.3555C46.8362 27.3555 48.7212 25.4705 48.7212 23.2085C48.7212 20.9464 46.8362 19.0614 44.5742 19.0614C42.3122 19.0614 40.4272 20.9464 40.4272 23.2085C40.4272 25.4705 42.2493 27.3555 44.5742 27.3555Z" fill="url(#paint7_linear_5431_39932)"/>
<path d="M37.6625 15.2913C39.736 15.2913 41.4326 13.5948 41.4326 11.5213C41.4326 9.44776 39.736 7.75125 37.6625 7.75125C35.589 7.75125 33.8925 9.44776 33.8925 11.5213C33.8925 13.5948 35.589 15.2913 37.6625 15.2913Z" fill="url(#paint8_linear_5431_39932)"/>
<defs>
<linearGradient id="paint0_linear_5431_39932" x1="4.02977" y1="-5.11384" x2="42.427" y2="64.2299" gradientUnits="userSpaceOnUse">
<stop stop-color="#FFB748"/>
<stop offset="1" stop-color="#FFB748" stop-opacity="0"/>
</linearGradient>
<linearGradient id="paint1_linear_5431_39932" x1="-6.47533" y1="0.703673" x2="31.9218" y2="70.0477" gradientUnits="userSpaceOnUse">
<stop stop-color="#FFB748"/>
<stop offset="1" stop-color="#FFB748" stop-opacity="0"/>
</linearGradient>
<linearGradient id="paint2_linear_5431_39932" x1="-10.8266" y1="3.11247" x2="27.5706" y2="72.4563" gradientUnits="userSpaceOnUse">
<stop stop-color="#FFB748"/>
<stop offset="1" stop-color="#FFB748" stop-opacity="0"/>
</linearGradient>
<linearGradient id="paint3_linear_5431_39932" x1="-6.80181" y1="0.883856" x2="31.5953" y2="70.2278" gradientUnits="userSpaceOnUse">
<stop stop-color="#FFB748"/>
<stop offset="1" stop-color="#FFB748" stop-opacity="0"/>
</linearGradient>
<linearGradient id="paint4_linear_5431_39932" x1="3.26136" y1="-4.68814" x2="41.6585" y2="64.6557" gradientUnits="userSpaceOnUse">
<stop stop-color="#FFB748"/>
<stop offset="1" stop-color="#FFB748" stop-opacity="0"/>
</linearGradient>
<linearGradient id="paint5_linear_5431_39932" x1="15.0162" y1="-11.197" x2="53.4133" y2="58.1467" gradientUnits="userSpaceOnUse">
<stop stop-color="#FFB748"/>
<stop offset="1" stop-color="#FFB748" stop-opacity="0"/>
</linearGradient>
<linearGradient id="paint6_linear_5431_39932" x1="15.5386" y1="-11.4867" x2="53.9357" y2="57.8575" gradientUnits="userSpaceOnUse">
<stop stop-color="#FFB748"/>
<stop offset="1" stop-color="#FFB748" stop-opacity="0"/>
</linearGradient>
<linearGradient id="paint7_linear_5431_39932" x1="23.0385" y1="-15.6392" x2="61.4356" y2="53.7045" gradientUnits="userSpaceOnUse">
<stop stop-color="#FFB748"/>
<stop offset="1" stop-color="#FFB748" stop-opacity="0"/>
</linearGradient>
<linearGradient id="paint8_linear_5431_39932" x1="22.7356" y1="-15.4714" x2="61.1327" y2="53.8723" gradientUnits="userSpaceOnUse">
<stop stop-color="#FFB748"/>
<stop offset="1" stop-color="#FFB748" stop-opacity="0"/>
</linearGradient>
</defs>
</svg>
