<svg viewBox="0 0 20 20" xmlns="http://www.w3.org/2000/svg" fill="currentColor">
    <path fill-rule="evenodd" clip-rule="evenodd" d="M9.99992 0.833313C4.93992 0.833313 0.833252 4.93998 0.833252 9.99998C0.833252 15.06 4.93992 19.1666 9.99992 19.1666C15.0599 19.1666 19.1666 15.06 19.1666 9.99998C19.1666 4.93998 15.0599 0.833313 9.99992 0.833313ZM9.08325 16.4166V14.5833H10.9166V16.4166H9.08325ZM11.9891 10.1558L12.8141 9.31248C13.3366 8.78998 13.6666 8.05665 13.6666 7.24998C13.6666 5.22415 12.0258 3.58331 9.99992 3.58331C7.97409 3.58331 6.33325 5.22415 6.33325 7.24998H8.16659C8.16659 6.24165 8.99158 5.41665 9.99992 5.41665C11.0083 5.41665 11.8333 6.24165 11.8333 7.24998C11.8333 7.75415 11.6316 8.21248 11.2924 8.54248L10.1558 9.69748C9.49575 10.3666 9.08325 11.2833 9.08325 12.2916V12.75H10.9166C10.9166 11.375 11.3291 10.825 11.9891 10.1558Z" />
</svg>