<svg viewBox="0 0 33 33" fill="none" xmlns="http://www.w3.org/2000/svg">
    <circle cx="16.5" cy="16.5" r="16.5" fill="#FFAE06" />
    <path d="M15.7364 20.3454C15.7364 20.0584 15.7618 19.7799 15.804 19.5097C13.9806 19.4675 12.5118 17.9818 12.5118 16.1415C12.5118 14.276 14.0228 12.7649 15.8884 12.7649C17.4416 12.7649 18.7416 13.8201 19.1299 15.2552C19.7799 14.9851 20.4975 14.8331 21.2488 14.8331C21.8312 14.8331 22.3968 14.926 22.9286 15.0948L23.7981 14.3013C24.0936 14.0312 24.1611 13.6006 23.9585 13.2545L22.4221 10.5955C22.228 10.2494 21.8143 10.089 21.4345 10.2156L19.8812 10.7052C19.6871 10.5617 19.4845 10.4266 19.2734 10.3084C19.054 10.1818 18.8176 10.0636 18.5812 9.9539L18.252 8.36689C18.1676 7.97858 17.8215 7.70001 17.4248 7.70001H14.352C13.9553 7.70001 13.6176 7.97858 13.5332 8.36689L13.1871 9.9539C12.9592 10.0552 12.7397 10.1649 12.5287 10.2831C12.3092 10.4097 12.0897 10.5533 11.8871 10.7052L10.3339 10.2071C9.96243 10.089 9.5488 10.2494 9.3462 10.587L7.80984 13.2545C7.61568 13.5922 7.68322 14.0312 7.97867 14.3013L9.17737 15.3987C9.15204 15.6435 9.13516 15.8967 9.13516 16.1415C9.13516 16.3864 9.15204 16.6396 9.17737 16.8928L7.97867 17.9902C7.68322 18.2604 7.61568 18.6909 7.81828 19.037L9.35464 21.6961C9.5488 22.0422 9.96243 22.2026 10.3423 22.0759L11.8955 21.5863C12.1066 21.7383 12.3261 21.8818 12.5455 22.0084C12.7566 22.1266 12.9676 22.2363 13.1871 22.3376L13.5332 23.9246C13.6176 24.3045 13.9553 24.5831 14.352 24.5831H17.4248C17.5092 24.5831 17.5936 24.5662 17.6696 24.5409C16.4877 23.5279 15.7364 22.0253 15.7364 20.3454Z" fill="white" />
    <path fill-rule="evenodd" clip-rule="evenodd" d="M22.9371 17.4247C22.8274 17.3571 22.7176 17.3065 22.5994 17.2558L22.4306 16.4708C22.3884 16.2766 22.2196 16.1415 22.0254 16.1415H20.5144C20.3202 16.1415 20.1514 16.2766 20.1092 16.4708L19.9404 17.2558C19.8306 17.3065 19.7209 17.3571 19.6196 17.4162C19.5098 17.4753 19.4085 17.5428 19.3072 17.6188L18.5475 17.374C18.3618 17.3149 18.1592 17.3909 18.0663 17.5597L17.315 18.8682C17.2137 19.037 17.2475 19.248 17.391 19.3831L17.9819 19.9233C17.965 20.05 17.965 20.1682 17.965 20.2948C17.965 20.413 17.9735 20.5396 17.9819 20.6662L17.391 21.2065C17.2475 21.3415 17.2137 21.5526 17.315 21.7214L18.0663 23.0298C18.1676 23.1987 18.3618 23.2746 18.5475 23.2155L19.3072 22.9707C19.4085 23.0467 19.5183 23.1143 19.628 23.1818C19.7293 23.2409 19.8391 23.2915 19.9488 23.3422L20.1176 24.1272C20.1598 24.3214 20.3287 24.4565 20.5228 24.4565H22.0339C22.228 24.4565 22.3968 24.3214 22.4391 24.1272L22.6079 23.3422C22.7261 23.2915 22.8358 23.2324 22.9455 23.1733C23.0468 23.1143 23.1481 23.0467 23.2494 22.9792L24.0092 23.224C24.1949 23.2831 24.3975 23.2071 24.4903 23.0383L25.2416 21.7298C25.3429 21.561 25.3092 21.35 25.1657 21.2149L24.5748 20.6746C24.5832 20.5311 24.5832 20.413 24.5832 20.2863C24.5832 20.1682 24.5748 20.0415 24.5663 19.9233L25.1572 19.3831C25.3007 19.248 25.3345 19.037 25.2332 18.8682L24.4819 17.5597C24.3806 17.3909 24.1865 17.3149 24.0007 17.374L23.241 17.6188C23.1397 17.5428 23.0384 17.4837 22.9371 17.4247ZM21.2657 21.9493C22.1858 21.9493 22.9287 21.2065 22.9287 20.2863C22.9287 19.3662 22.1858 18.6234 21.2657 18.6234C20.3456 18.6234 19.6027 19.3662 19.6027 20.2863C19.6111 21.2065 20.354 21.9493 21.2657 21.9493Z" fill="white" />
</svg>