<svg width="20" height="20" viewBox="0 0 24 24" fill="none" xmlns="http://www.w3.org/2000/svg">
    <path d="M15.2748 18.6126C14.8129 18.6126 14.4351 18.2977 14.4351 17.9114C14.4351 17.542 14.1328 17.2397 13.7633 17.2397C13.3938 17.2397 13.0916 17.542 13.0916 17.9114C13.0916 18.7973 13.7171 19.5908 14.6072 19.8553C14.6534 20.1828 14.9347 20.4347 15.2748 20.4347C15.6148 20.4347 15.8961 20.1828 15.9423 19.8553C16.8324 19.5866 17.458 18.7973 17.458 17.9114C17.458 16.7862 16.4797 15.8668 15.2748 15.8668C14.8129 15.8668 14.4351 15.5519 14.4351 15.1656C14.4351 14.7794 14.8129 14.4645 15.2748 14.4645C15.7366 14.4645 16.1145 14.7794 16.1145 15.1656C16.1145 15.5351 16.4167 15.8374 16.7862 15.8374C17.1557 15.8374 17.458 15.5351 17.458 15.1656C17.458 14.2756 16.824 13.482 15.9297 13.2175C15.8583 12.9236 15.5938 12.7053 15.279 12.7053C14.9641 12.7053 14.6996 12.9236 14.6282 13.2175C13.7297 13.482 13.1 14.2756 13.1 15.1656C13.1 16.2908 14.0782 17.2103 15.2832 17.2103C15.745 17.2103 16.1229 17.5252 16.1229 17.9114C16.1229 18.2977 15.7366 18.6126 15.2748 18.6126Z" fill="#cad6e2" stroke="#cad6e2" stroke-width="0.05" />
    <path d="M20.1492 9.16183L17.7687 6.18511L18.9401 3.88855C19.2634 3.25038 19.1374 2.51985 18.621 2.02863C18.3229 1.74733 17.9408 1.59198 17.542 1.59198C17.2691 1.59198 16.992 1.66756 16.7443 1.81031C16.7107 1.8313 16.6687 1.83969 16.6267 1.83969C16.5721 1.83969 16.5218 1.8229 16.4798 1.78931C15.8584 1.2771 15.0733 1 14.2672 1C13.4611 1 12.676 1.2771 12.0588 1.78092C12.0168 1.8145 11.9664 1.8313 11.9118 1.8313C11.8698 1.8313 11.8321 1.8187 11.7943 1.80191C11.5466 1.65916 11.2737 1.58359 10.9966 1.58359C10.5977 1.58359 10.2156 1.73893 9.91756 2.02023C9.39695 2.51565 9.27099 3.24618 9.59847 3.88435L10.774 6.18931L9.43053 7.8729C9.19962 8.1626 9.2458 8.58664 9.5355 8.81756C9.65305 8.91412 9.8042 8.9645 9.95534 8.9645C10.1611 8.9645 10.35 8.87214 10.4802 8.7126L11.895 6.94084H14.6031V7.8687C14.6031 8.23817 14.9053 8.54046 15.2748 8.54046C15.6443 8.54046 15.9466 8.23817 15.9466 7.8687V6.94084H16.0851V10.8832C16.0851 11.2527 16.3874 11.555 16.7569 11.555C17.1263 11.555 17.4286 11.2527 17.4286 10.8832V7.91069L19.0996 10.0015C20.7496 12.063 21.6565 14.6492 21.6565 17.2901C21.6565 19.6958 19.7 21.6523 17.2943 21.6523H11.2485C9.90496 21.6523 8.68321 21.0645 7.85611 20.0317C9.30038 19.2382 10.2492 18.4363 10.8328 17.5252C11.513 16.463 11.5885 15.4344 11.6137 14.2882V14.2714V10.7824C11.6137 10.5221 11.4584 10.2828 11.2233 10.1737L6.58817 8.04084C6.5 7.99886 6.40344 7.97786 6.30687 7.97786C6.21031 7.97786 6.11374 7.99886 6.02557 8.04084L1.39046 10.1737C1.15534 10.2828 1 10.5221 1 10.7824V14.2714V14.2882C1.02519 15.4302 1.10496 16.463 1.78092 17.5252C2.51565 18.6714 3.86336 19.6706 6.02557 20.6698C6.11374 20.7118 6.21031 20.7328 6.30687 20.7328C6.40344 20.7328 6.5 20.7118 6.58817 20.6698C6.60496 20.6615 6.61756 20.6573 6.63435 20.6489C7.10458 21.2954 7.71336 21.8412 8.40191 22.2401C9.2626 22.7397 10.2492 23 11.2485 23H17.2943C20.4389 22.9958 23 20.4389 23 17.2901C23 14.3469 21.9882 11.4584 20.1492 9.16183ZM11.1183 2.96489C11.3576 3.10344 11.6305 3.17481 11.9076 3.17481C12.2729 3.17481 12.6256 3.04886 12.9069 2.82214C13.2889 2.51145 13.7718 2.34351 14.2672 2.34351C14.7626 2.34351 15.2454 2.51565 15.6275 2.82634C15.9088 3.05305 16.2615 3.17901 16.6225 3.17901C16.8996 3.17901 17.1725 3.10763 17.4118 2.96908C17.4538 2.94389 17.4958 2.9313 17.5336 2.9313C17.6134 2.9313 17.6805 2.99008 17.6931 3.00267C17.7771 3.08244 17.7939 3.17481 17.7393 3.27977L16.5553 5.60153H11.979L10.795 3.27977C10.7405 3.17481 10.7573 3.08244 10.8412 3.00267C10.8538 2.99008 10.9168 2.9313 11.0008 2.9313C11.0385 2.9271 11.0763 2.93969 11.1183 2.96489ZM9.73702 16.7443C9.18283 17.6427 8.09122 18.4615 6.30687 19.3137C4.52672 18.4615 3.43511 17.6427 2.88092 16.7443C2.3855 15.9382 2.3645 15.1615 2.34351 14.263V11.2107L6.30687 9.38855L10.2702 11.2107V14.263C10.2534 15.1656 10.2324 15.9424 9.73702 16.7443Z" fill="#cad6e2" stroke="#cad6e2" stroke-width="0.5" />
    <path d="M8.69149 12.5793C8.51096 12.5793 8.34302 12.6507 8.21706 12.7767L6.04225 14.9515L5.22355 14.1328C5.0976 14.0068 4.92966 13.9355 4.74912 13.9355C4.56859 13.9355 4.40065 14.0068 4.2747 14.1328C4.01439 14.3931 4.01439 14.8213 4.2747 15.0816L5.56783 16.3748C5.69378 16.5007 5.86172 16.5721 6.04225 16.5721C6.22279 16.5721 6.39073 16.5007 6.51668 16.3748L9.16592 13.7255C9.42622 13.4652 9.42622 13.037 9.16592 12.7767C9.03996 12.6507 8.87203 12.5793 8.69149 12.5793Z" fill="#cad6e2" stroke="#cad6e2" stroke-width="0.5" />
</svg>