<svg xmlns="http://www.w3.org/2000/svg" viewBox="0 0 197.973 197.973" fill="currentColor">
    <path d="M167.509 68.204a3.411 3.411 0 0 0-4.784.659 3.418 3.418 0 0 0 .66 4.784 9.661 9.661 0 0 1 3.866 7.765v62.802H27.305V81.411a9.727 9.727 0 0 1 5.924-8.96 3.411 3.411 0 0 0 1.804-4.477 3.41 3.41 0 0 0-4.477-1.804A16.54 16.54 0 0 0 20.48 81.411v66.215a3.414 3.414 0 0 0 3.413 3.413h146.773a3.413 3.413 0 0 0 3.412-3.413V81.41c0-5.231-2.396-10.044-6.569-13.206z" />
    <path d="M170.667 143.36H23.893a3.414 3.414 0 0 0-3.413 3.413v10.749c0 9.129 7.427 16.558 16.558 16.558h120.484c9.129 0 16.558-7.429 16.558-16.558v-10.749a3.414 3.414 0 0 0-3.413-3.413zm-3.414 14.162c0 5.366-4.364 9.731-9.731 9.731H37.038c-5.366 0-9.731-4.364-9.731-9.731v-7.335h139.947v7.335z" />
    <path d="M121.943 189.355l-12.65-20.48a3.41 3.41 0 0 0-2.903-1.62H88.17a3.41 3.41 0 0 0-2.903 1.62l-12.65 20.48a3.409 3.409 0 0 0 2.904 5.205h43.52a3.418 3.418 0 0 0 2.982-1.749 3.418 3.418 0 0 0-.08-3.456zm-40.303-1.622l8.434-13.653h14.413l8.433 13.653H81.64zM156.44 111.08a3.412 3.412 0 0 0-4.826 0l-21.76 21.76a3.412 3.412 0 1 0 4.826 4.826l21.76-21.76a3.412 3.412 0 0 0 0-4.826zM159 123.88a3.412 3.412 0 0 0-4.826 0l-7.68 7.68a3.412 3.412 0 1 0 4.826 4.826l7.68-7.68a3.412 3.412 0 0 0 0-4.826z" />
    <path d="M134.4 187.733H57.6a3.414 3.414 0 0 0 0 6.826h76.8a3.414 3.414 0 0 0 0-6.826zM58.027 3.413H30.72a3.414 3.414 0 0 0-3.413 3.413V61.44c0 9.411 7.656 17.067 17.067 17.067 9.411 0 17.067-7.656 17.067-17.067V6.827a3.417 3.417 0 0 0-3.414-3.414zM54.613 61.44c0 5.647-4.593 10.24-10.24 10.24s-10.24-4.593-10.24-10.24v-51.2h20.48v51.2z" />
    <path d="M85.333 3.413H58.027a3.414 3.414 0 0 0-3.413 3.413V61.44c0 9.411 7.656 17.067 17.067 17.067 9.411 0 17.067-7.656 17.067-17.067V6.827a3.417 3.417 0 0 0-3.415-3.414zM81.92 61.44c0 5.647-4.593 10.24-10.24 10.24s-10.24-4.593-10.24-10.24v-51.2h20.48v51.2zM30.72 3.413H10.24a3.412 3.412 0 0 0-3.386 2.99L.027 61.017c-.018.14-.027.281-.027.423 0 9.411 7.656 17.067 17.067 17.067 9.411 0 17.067-7.656 17.067-17.067V6.827a3.417 3.417 0 0 0-3.414-3.414zM27.307 61.44c0 5.647-4.593 10.24-10.24 10.24-5.581 0-10.134-4.487-10.238-10.042l6.426-51.398h14.053v51.2z" />
    <path d="M112.64 3.413H85.333a3.414 3.414 0 0 0-3.413 3.413V61.44c0 9.411 7.656 17.067 17.067 17.067s17.067-7.656 17.067-17.067V6.827a3.417 3.417 0 0 0-3.414-3.414zm-3.413 58.027c0 5.647-4.593 10.24-10.24 10.24s-10.24-4.593-10.24-10.24v-51.2h20.48v51.2z" />
    <path d="M139.947 3.413H112.64a3.414 3.414 0 0 0-3.413 3.413V61.44c0 9.411 7.656 17.067 17.067 17.067 9.411 0 17.067-7.656 17.067-17.067V6.827a3.417 3.417 0 0 0-3.414-3.414zm-3.414 58.027c0 5.647-4.593 10.24-10.24 10.24s-10.24-4.593-10.24-10.24v-51.2h20.48v51.2zM197.946 61.017l-6.827-54.613a3.412 3.412 0 0 0-3.386-2.99h-20.48a3.414 3.414 0 0 0-3.413 3.413V61.44c0 9.411 7.656 17.067 17.067 17.067 9.411 0 17.067-7.656 17.067-17.067a3.314 3.314 0 0 0-.028-.423zM180.907 71.68c-5.647 0-10.24-4.593-10.24-10.24v-51.2h14.053l6.426 51.398c-.105 5.555-4.659 10.042-10.239 10.042z" />
    <path d="M167.253 3.413h-27.307a3.414 3.414 0 0 0-3.413 3.413V61.44c0 9.411 7.656 17.067 17.067 17.067s17.067-7.656 17.067-17.067V6.827a3.416 3.416 0 0 0-3.414-3.414zM163.84 61.44c0 5.647-4.593 10.24-10.24 10.24s-10.24-4.593-10.24-10.24v-51.2h20.48v51.2z" />
</svg>